<?xml version="1.0" standalone="no"?><!DOCTYPE svg PUBLIC "-//W3C//DTD SVG 1.1//EN" "http://www.w3.org/Graphics/SVG/1.1/DTD/svg11.dtd"><svg t="1749350821957" class="icon" viewBox="0 0 1024 1024" version="1.1" xmlns="http://www.w3.org/2000/svg" p-id="6650" xmlns:xlink="http://www.w3.org/1999/xlink" width="200" height="200"><path d="M491.52 81.92l-125.155556 253.724444c-3.413333 6.826667-9.102222 11.377778-17.066666 12.515556L69.404444 390.257778c-18.204444 2.275556-26.168889 25.031111-12.515555 38.684444l202.524444 197.973334c5.688889 5.688889 7.964444 12.515556 6.826667 20.48l-47.786667 279.893333c-3.413333 18.204444 15.928889 32.995556 32.995556 23.893333l250.311111-131.982222c3.413333-1.137778 6.826667-2.275556 10.24-2.275556V69.404444c-7.964444 0-15.928889 4.551111-20.48 12.515556z" p-id="6651" fill="#d81e06"></path><path d="M522.24 821.475556l250.311111 131.982222c17.066667 9.102222 36.408889-5.688889 32.995556-23.893334l-47.786667-279.893333c-1.137778-6.826667 1.137778-14.791111 6.826667-20.48L967.111111 430.08c13.653333-12.515556 5.688889-35.271111-12.515555-38.684444l-279.893334-40.96c-6.826667-1.137778-13.653333-5.688889-17.066666-12.515556l-125.155556-253.724444c-4.551111-9.102222-12.515556-12.515556-20.48-12.515556v101.262222L606.435556 364.088889c11.377778 23.893333 34.133333 39.822222 60.302222 43.235555l211.626666 30.72-153.6 149.048889c-18.204444 18.204444-27.306667 45.511111-22.755555 70.542223l36.408889 210.488888-188.871111-98.986666c-11.377778-6.826667-25.031111-9.102222-37.546667-9.102222V819.2c3.413333 0 6.826667 0 10.24 2.275556z" p-id="6652" fill="#d81e06"></path></svg>