<?xml version="1.0" standalone="no"?><!DOCTYPE svg PUBLIC "-//W3C//DTD SVG 1.1//EN" "http://www.w3.org/Graphics/SVG/1.1/DTD/svg11.dtd"><svg t="1749350748754" class="icon" viewBox="0 0 1024 1024" version="1.1" xmlns="http://www.w3.org/2000/svg" p-id="5640" xmlns:xlink="http://www.w3.org/1999/xlink" width="200" height="200"><path d="M362.432 325.696l-271.616 38.4-3.52 0.672c-23.04 5.824-31.488 34.464-13.824 51.232l196.544 186.4-46.4 263.2-0.384 3.36c-1.536 23.168 23.904 39.936 45.824 28.736L512 773.44l242.944 124.256 3.168 1.408c22.176 8.608 46.432-9.76 42.24-33.504l-46.4-263.2L950.528 416l2.432-2.56c15.104-17.92 4.672-45.888-19.776-49.344l-271.68-38.4-121.44-239.456c-11.488-22.656-44.64-22.656-56.128 0l-121.504 239.456z" fill="#d81e06" p-id="5641"></path></svg>